<?xml version="1.0" encoding="UTF-8" standalone="no"?>
<svg
   xmlns:dc="http://purl.org/dc/elements/1.1/"
   xmlns:cc="http://creativecommons.org/ns#"
   xmlns:rdf="http://www.w3.org/1999/02/22-rdf-syntax-ns#"
   xmlns:svg="http://www.w3.org/2000/svg"
   xmlns="http://www.w3.org/2000/svg"
   xmlns:sodipodi="http://sodipodi.sourceforge.net/DTD/sodipodi-0.dtd"
   xmlns:inkscape="http://www.inkscape.org/namespaces/inkscape"
   version="1.1"
   id="Layer_1"
   x="0px"
   y="0px"
   viewBox="0 0 400 400"
   style="enable-background:new 0 0 400 400;"
   xml:space="preserve"
   sodipodi:docname="sampaio-correa-logo.svg"
   inkscape:version="0.92.2 (5c3e80d, 2017-08-06)"><metadata
     id="metadata21"><rdf:RDF><cc:Work
         rdf:about=""><dc:format>image/svg+xml</dc:format><dc:type
           rdf:resource="http://purl.org/dc/dcmitype/StillImage" /><dc:title></dc:title></cc:Work></rdf:RDF></metadata><defs
     id="defs19" /><sodipodi:namedview
     pagecolor="#ffffff"
     bordercolor="#666666"
     borderopacity="1"
     objecttolerance="10"
     gridtolerance="10"
     guidetolerance="10"
     inkscape:pageopacity="0"
     inkscape:pageshadow="2"
     inkscape:window-width="1600"
     inkscape:window-height="837"
     id="namedview17"
     showgrid="false"
     inkscape:zoom="0.295"
     inkscape:cx="327.78509"
     inkscape:cy="444.19595"
     inkscape:window-x="-8"
     inkscape:window-y="-8"
     inkscape:window-maximized="1"
     inkscape:current-layer="Layer_1" /><style
     type="text/css"
     id="style2">
	.sampaio0{fill-rule:evenodd;clip-rule:evenodd;fill:#FFFFFF;}
	.sampaio1{fill:#FFFFFF;}
	.sampaio2{fill-rule:evenodd;clip-rule:evenodd;fill:#FFCB05;}
	.sampaio3{fill-rule:evenodd;clip-rule:evenodd;fill:#004B1C;}
	.sampaio4{fill-rule:evenodd;clip-rule:evenodd;fill:#D71920;}
	.sampaio5{fill:#D71920;}
</style><g
     id="XMLID_39_"><path
       id="XMLID_17_"
       class="sampaio0"
       d="M198.5,389c-22.6-32.8-52.9-42.3-88-53.3c-15.6-4.9-31.8-10-48.2-17.5l-0.2-0.1l-0.2-0.1   c-25.5-14.3-43.4-41.6-47.9-73.1c-4.5-31.1,5.2-61.4,26.6-83.3l0.2-0.2l0.2-0.2c19.3-15.5,29.3-30.5,30.4-45.8   c1-13.5-5.2-27.6-18.5-41.8L50.5,71l31-65.7l4.2,1.3c40.8,12.1,79.1,18,117,18c37.9,0,76.2-5.9,117-18l4.2-1.3l31,65.7l-2.4,2.6   c-13.3,14.3-19.5,28.3-18.5,41.8c1.1,15.3,11.1,30.3,30.4,45.8l0.2,0.2l0.2,0.2c21.4,21.9,31,52.2,26.6,83.3   c-4.5,31.5-22.4,58.8-47.9,73.1l-0.2,0.1l-0.2,0.1c-16.4,7.5-32.6,12.6-48.3,17.5c-35.1,11-65.4,20.5-88.1,53.3l-4.2,6.1L198.5,389   z" /><path
       id="XMLID_40_"
       class="sampaio1"
       d="M202.7,400l-6.5-9.4c-22.1-32-51.9-41.4-86.5-52.2c-15.7-4.9-31.9-10-48.6-17.6l-0.4-0.2   c-26.4-14.8-44.8-42.9-49.5-75.2c-4.6-31.9,5.4-63.1,27.3-85.6l0.5-0.5c18.9-15.2,28.5-29.5,29.6-44c0.9-12.7-5-26.1-17.8-39.8   l-3.6-3.9L80.1,2.1L86.6,4c40.6,12,78.6,17.9,116.2,17.9C240.4,21.9,278.5,16,319,4l6.5-1.9l32.8,69.5l-3.6,3.9   C342,89.2,336,102.5,337,115.2c1.1,14.5,10.7,28.9,29.4,43.8l0.5,0.4c22.2,22.7,32.1,53.9,27.5,85.8c-4.6,32.3-23.1,60.4-49.3,75.1   l-0.4,0.2c-16.8,7.7-33,12.8-48.8,17.7c-34.6,10.9-64.5,20.2-86.7,52.3L202.7,400z M53.8,70.5l1.1,1.2   c13.8,14.9,20.3,29.6,19.2,43.9c-1.2,16.1-11.5,31.7-31.4,47.8c-21,21.4-30.4,50.9-26,81.1c4.4,30.6,21.8,57.2,46.5,71   c16.5,7.5,32.6,12.6,48.1,17.5c35.6,11.2,66.3,20.8,89.5,54.4l2,2.8l2-2.8c23.2-33.6,54-43.2,89.5-54.4   c15.6-4.9,31.7-9.9,47.9-17.4c24.9-14,42.3-40.5,46.7-71.1c4.3-30.2-5.1-59.7-25.8-80.9c-20.2-16.2-30.5-31.8-31.6-48   c-1-14.3,5.4-29.1,19.2-43.9l1.1-1.2L322.5,8.7l-2,0.6C279.5,21.5,241,27.4,202.8,27.4c-38.2,0-76.7-5.9-117.8-18.1l-2-0.6   L53.8,70.5z" /></g><path
     id="XMLID_14_"
     class="sampaio2"
     d="M198.8,389c-22.6-32.8-52.9-42.3-88-53.3c-15.6-4.9-31.8-10-48.2-17.5l-0.2-0.1l-0.2-0.1  c-25.5-14.3-43.4-41.6-47.9-73.1c-4.5-31.1,5.2-61.4,26.6-83.3l0.2-0.2l0.2-0.2c19.3-15.5,29.3-30.5,30.4-45.8  c1-13.5-5.2-27.6-18.5-41.8L50.8,71l31-65.7l4.2,1.3c40.8,12.1,79.1,18,117,18c37.9,0,76.2-5.9,117-18l4.2-1.3l31,65.7l-2.4,2.6  c-13.3,14.3-19.5,28.3-18.5,41.8c1.1,15.3,11.1,30.3,30.4,45.8l0.2,0.2l0.2,0.2c21.4,21.9,31,52.2,26.6,83.3  c-4.5,31.5-22.4,58.8-47.9,73.1l-0.2,0.1l-0.2,0.1c-16.4,7.5-32.6,12.6-48.3,17.5c-35.1,11-65.4,20.5-88.1,53.3l-4.2,6.1L198.8,389z  " /><path
     id="XMLID_13_"
     class="sampaio3"
     d="M203,386.1c-34-49.4-85.7-48.5-138.3-72.6c-47.8-26.8-65.4-102-20.2-148.2  c27.6-22.1,50.3-54.5,12.5-95.2l27.6-58.5c81.8,24.3,155.1,24.3,236.9,0l27.6,58.5c-37.8,40.7-15.1,73.1,12.5,95.2  c45.2,46.3,27.6,121.4-20.2,148.2C288.9,337.6,237.1,336.7,203,386.1z" /><path
     id="XMLID_12_"
     class="sampaio2"
     d="M73.6,68.3l18.7-39.6c75,21.9,146.2,21.9,221.2,0l18.7,39.6C244.4,94,161.4,94,73.6,68.3z" /><path
     id="XMLID_32_"
     class="sampaio2"
     d="M84.7,84.7c11.4,2.9,22.7,5.7,34.1,7.8v143v82.3c-13.2-4.3-24.7-6.5-35.6-11.2V144.4  C94,126,93.7,103.5,84.7,84.7L84.7,84.7z M202.9,364.3c-5.4-5.8-11.2-11.4-18.2-16.5V100.4c12.1,0.5,24.2,0.5,36.3,0v247.4  C214.1,352.9,208.4,358.5,202.9,364.3L202.9,364.3z M321.2,84.7c-11.4,2.9-22.7,5.7-34.2,7.8v225.2c13.3-4.3,24.8-6.5,35.7-11.2  V144.4C311.9,126,312.2,103.5,321.2,84.7z" /><path
     id="XMLID_27_"
     class="sampaio4"
     d="M338.3,165v133c10.8-6.1,34.5-34.7,33.6-67.3C369.9,184.5,354.5,179.3,338.3,165L338.3,165z   M271.6,95.4c-11.7,1.8-23.6,3.2-35.7,4.3V338c10.8-6.1,22.6-11.1,35.7-15.3V95.4L271.6,95.4z M134.4,95.4  c11.7,1.8,23.5,3.2,35.7,4.3V338c-10.8-6.1-22.6-11.1-35.7-15.3V95.4L134.4,95.4z M67.7,165v133c-10.8-6.1-34.5-34.7-33.7-67.3  C36,184.5,51.4,179.3,67.7,165z" /><path
     id="XMLID_25_"
     class="sampaio5"
     d="M85.8,60.2c2.9-1.7,4.3-2.5,7.2-4.2c2.6,3.6,6,6,10.1,7.1c2.6,0.7,4.2,0.2,4.6-1.2  c0,0,0-0.1,0-0.1c0.4-1.3-0.6-2.4-5-4.7c-6.8-3.6-11.8-7.3-9.6-13.9c0,0,0-0.1,0-0.1c1.9-5.9,8-8.7,15.7-6.5  c5.5,1.5,9.4,4.1,12.3,7.8c-2.4,2.1-3.7,3.2-6.2,5.3c-2.5-2.9-5.5-4.9-8.5-5.7c-2.2-0.6-3.6,0-3.9,1.1c0,0,0,0.1,0,0.1  c-0.4,1.5,0.5,2.5,4.9,4.8c7.2,3.7,11.6,7.2,10.2,13.4c0,0,0,0.1,0,0.1c-1.6,6.7-8.3,9.4-16.9,7C94.3,68.7,88.9,65.1,85.8,60.2z" /><path
     id="XMLID_23_"
     class="sampaio5"
     d="M152.9,63.6C152.9,63.6,152.9,63.5,152.9,63.6c1.3-9.8,9.8-16.3,19.8-15.5  c6.8,0.6,10.9,3.7,13.7,7.9c-2.9,2-4.4,3-7.4,5c-1.8-2.5-3.9-4.2-7.2-4.5c-4.7-0.4-8.5,3.2-9,8c0,0,0,0.1,0,0.1  c-0.5,5,2.5,9.3,7.5,9.8c3.7,0.3,6-1.2,8.3-3.5c2.8,2.2,4.2,3.3,7.1,5.4c-3.6,4.2-8.4,7.2-16.5,6.5C158.9,82,151.6,73.5,152.9,63.6z  " /><path
     id="XMLID_21_"
     class="sampaio5"
     d="M220.4,49.6c10.6-0.6,15.9-1,26.5-2.4c0.4,3.2,0.6,4.9,1,8.1c-7.1,0.9-10.6,1.3-17.7,1.8  c0.2,2.3,0.3,3.4,0.4,5.7c6.5-0.5,9.8-0.8,16.3-1.6c0.4,3.1,0.6,4.6,1,7.7c-6.6,0.8-10,1.2-16.6,1.7c0.4,4.8,0.6,7.2,0.9,12  c-4,0.3-6,0.4-10.1,0.7C221.4,69.7,221.1,63,220.4,49.6z" /><path
     id="XMLID_19_"
     class="sampaio5"
     d="M282.7,58C282.7,58,282.7,57.9,282.7,58c-2.2-9.7,3.5-18.7,13.2-21.5c6.6-1.8,11.6-0.4,15.8,2.6  c-2.1,2.9-3.1,4.4-5.2,7.3c-2.6-1.7-5.2-2.6-8.3-1.7c-4.6,1.3-6.9,6-5.7,10.7c0,0,0,0.1,0,0.1c1.2,4.9,5.7,7.8,10.5,6.5  c3.6-1,5.3-3.2,6.6-6.2c3.4,1,5.2,1.6,8.7,2.5c-1.9,5.2-5.4,9.7-13.3,11.9C294.8,73.1,284.9,67.8,282.7,58z" /><text
     xml:space="preserve"
     style="font-style:normal;font-weight:normal;font-size:42.66666794px;line-height:1.25;font-family:sans-serif;letter-spacing:0px;word-spacing:0px;fill:#000000;fill-opacity:1;stroke:none"
     x="-55.13036"
     y="589.36078"
     id="text833"><tspan
       sodipodi:role="line"
       id="tspan831"
       x="-55.13036"
       y="589.36078">LOGODOWNLOAD.ORG</tspan></text>
<rect
     style="fill:#f9f9f9;fill-rule:evenodd"
     id="rect855"
     width="1316.3666"
     height="813.55933"
     x="661.01697"
     y="-183.05084" /><g
     transform="translate(1112.4514,39.627966)"
     id="XMLID_39_-2"><path
       inkscape:connector-curvature="0"
       id="XMLID_17_-4"
       class="sampaio0"
       d="m 198.5,389 c -22.6,-32.8 -52.9,-42.3 -88,-53.3 -15.6,-4.9 -31.8,-10 -48.2,-17.5 L 62.1,318.1 61.9,318 C 36.4,303.7 18.5,276.4 14,244.9 9.5,213.8 19.2,183.5 40.6,161.6 l 0.2,-0.2 0.2,-0.2 C 60.3,145.7 70.3,130.7 71.4,115.4 72.4,101.9 66.2,87.8 52.9,73.6 L 50.5,71 81.5,5.3 85.7,6.6 c 40.8,12.1 79.1,18 117,18 37.9,0 76.2,-5.9 117,-18 l 4.2,-1.3 31,65.7 -2.4,2.6 c -13.3,14.3 -19.5,28.3 -18.5,41.8 1.1,15.3 11.1,30.3 30.4,45.8 l 0.2,0.2 0.2,0.2 c 21.4,21.9 31,52.2 26.6,83.3 -4.5,31.5 -22.4,58.8 -47.9,73.1 l -0.2,0.1 -0.2,0.1 c -16.4,7.5 -32.6,12.6 -48.3,17.5 -35.1,11 -65.4,20.5 -88.1,53.3 l -4.2,6.1 z"
       style="clip-rule:evenodd;fill:#ffffff;fill-rule:evenodd" /><path
       inkscape:connector-curvature="0"
       id="XMLID_40_-7"
       class="sampaio1"
       d="m 202.7,400 -6.5,-9.4 c -22.1,-32 -51.9,-41.4 -86.5,-52.2 -15.7,-4.9 -31.9,-10 -48.6,-17.6 l -0.4,-0.2 C 34.3,305.8 15.9,277.7 11.2,245.4 6.6,213.5 16.6,182.3 38.5,159.8 l 0.5,-0.5 c 18.9,-15.2 28.5,-29.5 29.6,-44 0.9,-12.7 -5,-26.1 -17.8,-39.8 L 47.2,71.6 80.1,2.1 86.6,4 C 127.2,16 165.2,21.9 202.8,21.9 240.4,21.9 278.5,16 319,4 l 6.5,-1.9 32.8,69.5 -3.6,3.9 c -12.7,13.7 -18.7,27 -17.7,39.7 1.1,14.5 10.7,28.9 29.4,43.8 l 0.5,0.4 c 22.2,22.7 32.1,53.9 27.5,85.8 -4.6,32.3 -23.1,60.4 -49.3,75.1 l -0.4,0.2 c -16.8,7.7 -33,12.8 -48.8,17.7 -34.6,10.9 -64.5,20.2 -86.7,52.3 z M 53.8,70.5 l 1.1,1.2 c 13.8,14.9 20.3,29.6 19.2,43.9 -1.2,16.1 -11.5,31.7 -31.4,47.8 -21,21.4 -30.4,50.9 -26,81.1 4.4,30.6 21.8,57.2 46.5,71 16.5,7.5 32.6,12.6 48.1,17.5 35.6,11.2 66.3,20.8 89.5,54.4 l 2,2.8 2,-2.8 c 23.2,-33.6 54,-43.2 89.5,-54.4 15.6,-4.9 31.7,-9.9 47.9,-17.4 24.9,-14 42.3,-40.5 46.7,-71.1 4.3,-30.2 -5.1,-59.7 -25.8,-80.9 -20.2,-16.2 -30.5,-31.8 -31.6,-48 -1,-14.3 5.4,-29.1 19.2,-43.9 l 1.1,-1.2 -29.3,-61.8 -2,0.6 C 279.5,21.5 241,27.4 202.8,27.4 164.6,27.4 126.1,21.5 85,9.3 L 83,8.7 Z"
       style="fill:#ffffff" /></g><path
     inkscape:connector-curvature="0"
     id="XMLID_14_-8"
     class="sampaio2"
     d="m 1311.2514,428.62797 c -22.6,-32.8 -52.9,-42.3 -88,-53.3 -15.6,-4.9 -31.8,-10 -48.2,-17.5 l -0.2,-0.1 -0.2,-0.1 c -25.5,-14.3 -43.4,-41.6 -47.9,-73.1 -4.5,-31.1 5.2,-61.4 26.6,-83.3 l 0.2,-0.2 0.2,-0.2 c 19.3,-15.5 29.3,-30.5 30.4,-45.8 1,-13.5 -5.2,-27.6 -18.5,-41.8 l -2.4,-2.6 31,-65.700004 4.2,1.3 c 40.8,12.1 79.1,18 117,18 37.9,0 76.2,-5.9 117,-18 l 4.2,-1.3 31,65.700004 -2.4,2.6 c -13.3,14.3 -19.5,28.3 -18.5,41.8 1.1,15.3 11.1,30.3 30.4,45.8 l 0.2,0.2 0.2,0.2 c 21.4,21.9 31,52.2 26.6,83.3 -4.5,31.5 -22.4,58.8 -47.9,73.1 l -0.2,0.1 -0.2,0.1 c -16.4,7.5 -32.6,12.6 -48.3,17.5 -35.1,11 -65.4,20.5 -88.1,53.3 l -4.2,6.1 z"
     style="clip-rule:evenodd;fill:#ffcb05;fill-rule:evenodd" /><path
     inkscape:connector-curvature="0"
     id="XMLID_13_-0"
     class="sampaio3"
     d="m 1315.4514,425.72797 c -34,-49.4 -85.7,-48.5 -138.3,-72.6 -47.8,-26.8 -65.4,-102 -20.2,-148.2 27.6,-22.1 50.3,-54.5 12.5,-95.2 l 27.6,-58.500004 c 81.8,24.3 155.1,24.3 236.9,0 l 27.6,58.500004 c -37.8,40.7 -15.1,73.1 12.5,95.2 45.2,46.3 27.6,121.4 -20.2,148.2 -52.5,24.1 -104.3,23.2 -138.4,72.6 z"
     style="clip-rule:evenodd;fill:#004b1c;fill-rule:evenodd" /><path
     inkscape:connector-curvature="0"
     id="XMLID_12_-1"
     class="sampaio2"
     d="m 1186.0514,107.92797 18.7,-39.600004 c 75,21.9 146.2,21.9 221.2,0 l 18.7,39.600004 c -87.8,25.7 -170.8,25.7 -258.6,0 z"
     style="clip-rule:evenodd;fill:#ffcb05;fill-rule:evenodd" /><path
     inkscape:connector-curvature="0"
     id="XMLID_32_-9"
     class="sampaio2"
     d="m 1197.1514,124.32797 c 11.4,2.9 22.7,5.7 34.1,7.8 v 143 82.3 c -13.2,-4.3 -24.7,-6.5 -35.6,-11.2 v -162.2 c 10.8,-18.4 10.5,-40.9 1.5,-59.7 z m 118.2,279.6 c -5.4,-5.8 -11.2,-11.4 -18.2,-16.5 v -247.4 c 12.1,0.5 24.2,0.5 36.3,0 v 247.4 c -6.9,5.1 -12.6,10.7 -18.1,16.5 z m 118.3,-279.6 c -11.4,2.9 -22.7,5.7 -34.2,7.8 v 225.2 c 13.3,-4.3 24.8,-6.5 35.7,-11.2 v -162.1 c -10.8,-18.4 -10.5,-40.9 -1.5,-59.7 z"
     style="clip-rule:evenodd;fill:#ffcb05;fill-rule:evenodd" /><path
     inkscape:connector-curvature="0"
     id="XMLID_27_-7"
     class="sampaio4"
     d="m 1450.7514,204.62797 v 133 c 10.8,-6.1 34.5,-34.7 33.6,-67.3 -2,-46.2 -17.4,-51.4 -33.6,-65.7 z m -66.7,-69.6 c -11.7,1.8 -23.6,3.2 -35.7,4.3 v 238.3 c 10.8,-6.1 22.6,-11.1 35.7,-15.3 z m -137.2,0 c 11.7,1.8 23.5,3.2 35.7,4.3 v 238.3 c -10.8,-6.1 -22.6,-11.1 -35.7,-15.3 z m -66.7,69.6 v 133 c -10.8,-6.1 -34.5,-34.7 -33.7,-67.3 2,-46.2 17.4,-51.4 33.7,-65.7 z"
     style="clip-rule:evenodd;fill:#d71920;fill-rule:evenodd" /><path
     inkscape:connector-curvature="0"
     id="XMLID_25_-1"
     class="sampaio5"
     d="m 1198.2514,99.827966 c 2.9,-1.7 4.3,-2.5 7.2,-4.2 2.6,3.6 6,6.000004 10.1,7.100004 2.6,0.7 4.2,0.2 4.6,-1.2 0,0 0,-0.1 0,-0.1 0.4,-1.3 -0.6,-2.400004 -5,-4.700004 -6.8,-3.6 -11.8,-7.3 -9.6,-13.9 0,0 0,-0.1 0,-0.1 1.9,-5.9 8,-8.7 15.7,-6.5 5.5,1.5 9.4,4.1 12.3,7.8 -2.4,2.1 -3.7,3.2 -6.2,5.3 -2.5,-2.9 -5.5,-4.9 -8.5,-5.7 -2.2,-0.6 -3.6,0 -3.9,1.1 0,0 0,0.1 0,0.1 -0.4,1.5 0.5,2.5 4.9,4.8 7.2,3.7 11.6,7.2 10.2,13.400004 0,0 0,0.1 0,0.1 -1.6,6.7 -8.3,9.4 -16.9,7 -6.4,-1.8 -11.8,-5.4 -14.9,-10.300004 z"
     style="fill:#d71920" /><path
     inkscape:connector-curvature="0"
     id="XMLID_23_-0"
     class="sampaio5"
     d="m 1265.3514,103.22797 c 0,0 0,-0.1 0,0 1.3,-9.800004 9.8,-16.300004 19.8,-15.500004 6.8,0.6 10.9,3.7 13.7,7.9 -2.9,2 -4.4,3 -7.4,5.000004 -1.8,-2.500004 -3.9,-4.200004 -7.2,-4.500004 -4.7,-0.4 -8.5,3.2 -9,8.000004 0,0 0,0.1 0,0.1 -0.5,5 2.5,9.3 7.5,9.8 3.7,0.3 6,-1.2 8.3,-3.5 2.8,2.2 4.2,3.3 7.1,5.4 -3.6,4.2 -8.4,7.2 -16.5,6.5 -10.3,-0.8 -17.6,-9.3 -16.3,-19.2 z"
     style="fill:#d71920" /><path
     inkscape:connector-curvature="0"
     id="XMLID_21_-9"
     class="sampaio5"
     d="m 1332.8514,89.227966 c 10.6,-0.6 15.9,-1 26.5,-2.4 0.4,3.2 0.6,4.9 1,8.1 -7.1,0.9 -10.6,1.3 -17.7,1.8 0.2,2.3 0.3,3.400004 0.4,5.700004 6.5,-0.5 9.8,-0.8 16.3,-1.6 0.4,3.1 0.6,4.6 1,7.7 -6.6,0.8 -10,1.2 -16.6,1.7 0.4,4.8 0.6,7.2 0.9,12 -4,0.3 -6,0.4 -10.1,0.7 -0.7,-13.6 -1,-20.3 -1.7,-33.700004 z"
     style="fill:#d71920" /><path
     inkscape:connector-curvature="0"
     id="XMLID_19_-4"
     class="sampaio5"
     d="m 1395.1514,97.627966 c 0,0 0,-0.1 0,0 -2.2,-9.7 3.5,-18.7 13.2,-21.5 6.6,-1.8 11.6,-0.4 15.8,2.6 -2.1,2.9 -3.1,4.4 -5.2,7.3 -2.6,-1.7 -5.2,-2.6 -8.3,-1.7 -4.6,1.3 -6.9,6 -5.7,10.7 0,0 0,0.1 0,0.1 1.2,4.900004 5.7,7.800004 10.5,6.500004 3.6,-1 5.3,-3.200004 6.6,-6.200004 3.4,1 5.2,1.6 8.7,2.5 -1.9,5.200004 -5.4,9.700004 -13.3,11.900004 -10.2,2.9 -20.1,-2.4 -22.3,-12.200004 z"
     style="fill:#d71920" /></svg>